<svg width="681" height="290" xmlns="http://www.w3.org/2000/svg"><path fill="#44841A" d="M255.2 127.6c0 70.5-57.1 127.6-127.6 127.6S0 198.1 0 127.6 57.1 0 127.6 0s127.6 57.1 127.6 127.6zM76.8 99h23.3c.7 0 1.2-.6 1.3-1.3 1.9-12.8 12.9-22.6 26.2-22.6s24.3 9.8 26.2 22.6c.1.7.7 1.3 1.4 1.3h23.2c.7 0 1.3-.6 1.3-1.3-2-27-24.6-48.3-52.1-48.3S77.5 70.7 75.5 97.7c0 .7.6 1.3 1.3 1.3zm75.9 48.4c15.1-8.3 25.7-23.8 27-41.9 0-.7-.6-1.3-1.3-1.3h-23.3c-.7 0-1.2.6-1.3 1.3-1.9 12.8-12.9 22.6-26.2 22.6s-24.3-9.8-26.2-22.6c-.1-.8-.6-1.3-1.3-1.3H76.8c-.7 0-1.3.6-1.3 1.3 1.3 18.1 11.9 33.6 27 41.9-15.8 8.7-26.7 25.3-27.2 44.5 0 .7.6 1.3 1.3 1.3h23.1c.7 0 1.3-.6 1.3-1.3.7-14 12.3-25.2 26.5-25.2s25.8 11.2 26.5 25.2c0 .7.6 1.3 1.3 1.3h23.2c.7 0 1.3-.6 1.3-1.3-.4-19.2-11.3-35.8-27.1-44.5zm204.3-6c0 7.7-7.9 10.3-12.5 10.3s-12.5-2.6-12.5-10.3V99.6c0-7.7 7.9-10.3 12.5-10.3S357 91.9 357 99.6v41.8zm-12.5-72.3c-22.3.1-32.7 15.7-32.7 29V143c0 13.3 10.4 28.9 32.7 29 22.3-.1 32.7-15.7 32.7-29V98.1c0-13.3-10.4-29-32.7-29zm143.2 101V131h30.1v-20.1h-30V91h34.9V70.9h-55.2v99.2zm69.2-68.3L565 133h-16.3l8.2-31.2zm17.6 68.3h20.1l-26.3-99.2h-23.5l-25.9 99.2h20.2l4.6-17.6H570l4.5 17.6zm-143-49.7l25.7-49.5h-23.3l-14 28.9-14.1-28.9h-23.3l25.7 49.5-25.8 49.7H406l13.9-28.8 13.9 28.8h23.6zm228-49.5L641.7 109l-18-38.1h-20.6v99.2h19.7v-56.5l12.7 26.4H648l12.7-26.3v56.4h19.7V70.9zM329.3 270.1h-17.5l-.1-57.7h17.1c13 0 15.1 10 15.1 15v1c0 3.2-1.4 9.5-6.6 12 6.2 2.3 7.5 9.3 7.5 12.5v1.9c0 4.9-2.6 15.3-15.5 15.3zm8.4-42.7c0-8.1-5.6-8.9-9-8.9H318v18.8h11.2c3.7 0 8.5-1.1 8.5-9.2v-.7zm1 25.5c0-8.1-5.4-9.5-9.2-9.5H318V264h11.1c3.4 0 9.6-1.2 9.5-9.3l.1-1.8zm47.2-2.2h-25.7v4.8c0 4.2 2 9.3 9.8 9.3 5.5 0 9.1-3.2 9.6-8.7h6.2c-.7 9-6.9 14.7-15.8 14.7-9.6 0-16-5.9-16-15.4V242c0-9.3 6.5-15.3 15.9-15.3 9.6 0 15.9 5.8 15.9 15.3l.1 8.7zm-6.1-8.6c0-4.3-2-9.3-9.7-9.3-6.1 0-9.8 3.4-9.8 9.3v2.6h19.5v-2.6zm15.9-30.3h6.2v47.6c0 3.6 2 4.7 4.5 4.7h1.9v6H406c-5.6 0-10.2-3.1-10.2-11l-.1-47.3zm43.4 54.9c-1.7 2.6-5.8 4.1-9.4 4.1-9.6 0-15.7-5.9-15.7-15.4V242c0-9.3 6.2-15.3 15.7-15.3 3.5 0 7.8 1.5 9.4 4v-3.3h6.2v46c0 11.7-7.6 14.9-15.5 14.9s-14-4.6-15-12.5h6.2c.8 4.2 4.1 6.4 8.8 6.4 4.3 0 9.4-.8 9.4-8.8l-.1-6.7zm0-24.6c0-4.3-1.6-9.3-9.4-9.3-6 0-9.5 3.4-9.5 9.3v13.4c0 4.2 1.7 9.3 9.6 9.3 5.9 0 9.4-3.5 9.4-9.3l-.1-13.4zm17.5-21.7v-8.7h7.4v8.7h-7.4zm.7 49.6v-42.6h6.1V270h-6.1zm17.3-28c0-9.3 6.2-15.3 15.7-15.3 3.5 0 7.7 1.7 9.4 4v-3.4h6.2l.1 60.9h-6.2v-21.6c-1.8 2.5-5.8 4.1-9.4 4.1-9.6 0-15.7-5.9-15.7-15.4l-.1-13.3zm6.1 13.4c0 4.2 1.7 9.3 9.6 9.3 5.9 0 9.4-3.5 9.4-9.3V242c0-4.3-1.6-9.3-9.4-9.3-6 0-9.5 3.4-9.5 9.3l-.1 13.4zm61.5 14.5v-3.3c-1.9 2.5-6 4.1-9.6 4.1-9.6 0-15.7-5.9-15.7-15.3v-28h6.2v28c0 4.2 1.7 9.2 9.6 9.2 5.7 0 9.6-3.4 9.6-8.8v-28.4h6.2V270l-6.3-.1zm48.4-19.4h-25.7v4.8c0 4.2 2 9.3 9.8 9.3 5.5 0 9.1-3.2 9.6-8.7h6.2c-.7 9-6.9 14.7-15.8 14.7-9.6 0-16-5.9-16-15.4v-13.4c0-9.3 6.5-15.3 15.9-15.3 9.6 0 15.9 5.8 15.9 15.3l.1 8.7zm-6.1-8.6c0-4.3-2-9.3-9.7-9.3-6.1 0-9.8 3.4-9.8 9.3v2.6h19.5v-2.6z" class="st0"/><script xmlns=""/></svg>